HIERARCHY
ROOT Hips
{
	OFFSET 0.000000 71.427986 0.000000
	CHANNELS 6 Xposition Yposition Zposition Xrotation Yrotation Zrotation
	JOINT Pelvis
	{
		OFFSET 0.000000 0.000000 0.000000
		CHANNELS 3 Xrotation Yrotation Zrotation
		JOINT LeftUpLeg
		{
			OFFSET 6.797100 -2.508499 -1.318700
			CHANNELS 3 Xrotation Yrotation Zrotation
			JOINT LeftLeg
			{
				OFFSET 0.069008 -29.241863 0.690200
				CHANNELS 3 Xrotation Yrotation Zrotation
				JOINT LeftFoot
				{
					OFFSET -0.069008 -29.568123 -0.266800
					CHANNELS 3 Xrotation Yrotation Zrotation
					JOINT LeftToeBase
					{
						OFFSET 3.145500 -8.631000 16.059900
						CHANNELS 3 Xrotation Yrotation Zrotation
						End Site
						{
							OFFSET 0.000000 18.501587 0.000000
						}
					}
				}
			}
			JOINT Left_ShortSleeve
			{
				OFFSET 0.265923 -10.480953 1.153800
				CHANNELS 3 Xrotation Yrotation Zrotation
				End Site
				{
					OFFSET 1.725763 19.823879 0.000000
				}
			}
		}
		JOINT RightUpLeg
		{
			OFFSET -6.797100 -2.508499 -1.318700
			CHANNELS 3 Xrotation Yrotation Zrotation
			JOINT RightLeg
			{
				OFFSET -0.082453 -29.241932 0.688000
				CHANNELS 3 Xrotation Yrotation Zrotation
				JOINT RightFoot
				{
					OFFSET 0.082453 -29.568058 -0.264600
					CHANNELS 3 Xrotation Yrotation Zrotation
					JOINT RightToeBase
					{
						OFFSET -3.115300 -8.682800 16.113400
						CHANNELS 3 Xrotation Yrotation Zrotation
						End Site
						{
							OFFSET 0.000000 18.567114 0.000000
						}
					}
				}
			}
			JOINT Right_ShortSleeve
			{
				OFFSET -0.265923 -10.480953 1.153800
				CHANNELS 3 Xrotation Yrotation Zrotation
				End Site
				{
					OFFSET -1.725766 19.823910 0.000000
				}
			}
		}
	}
	JOINT Spine
	{
		OFFSET 0.000000 13.368103 0.470500
		CHANNELS 3 Xrotation Yrotation Zrotation
		JOINT Spine1
		{
			OFFSET 0.147000 13.837402 0.538800
			CHANNELS 3 Xrotation Yrotation Zrotation
			JOINT Spine2
			{
				OFFSET 0.168000 16.242897 -1.435500
				CHANNELS 3 Xrotation Yrotation Zrotation
				JOINT Neck
				{
					OFFSET 0.217200 18.631500 -1.679100
					CHANNELS 3 Xrotation Yrotation Zrotation
					JOINT Head
					{
						OFFSET 0.000000 6.599396 1.385900
						CHANNELS 3 Xrotation Yrotation Zrotation
						JOINT Hat
						{
							OFFSET -0.532200 27.220596 -10.096100
							CHANNELS 3 Xrotation Yrotation Zrotation
							End Site
							{
								OFFSET 0.000000 22.029861 0.000000
							}
						}
						JOINT HairD
						{
							OFFSET -10.777400 17.437393 -1.325900
							CHANNELS 3 Xrotation Yrotation Zrotation
							JOINT HairD1
							{
								OFFSET -3.290299 -11.051193 1.062200
								CHANNELS 3 Xrotation Yrotation Zrotation
								End Site
								{
									OFFSET 0.000000 11.579437 0.000000
								}
							}
						}
						JOINT HairB
						{
							OFFSET -10.777400 17.437393 1.467900
							CHANNELS 3 Xrotation Yrotation Zrotation
							JOINT HairB1
							{
								OFFSET -1.561200 -12.956299 3.590200
								CHANNELS 3 Xrotation Yrotation Zrotation
								End Site
								{
									OFFSET 0.000000 13.534866 0.000000
								}
							}
						}
						JOINT HairA
						{
							OFFSET 9.713100 17.437393 1.467900
							CHANNELS 3 Xrotation Yrotation Zrotation
							JOINT HairA1
							{
								OFFSET 1.561200 -12.956299 3.590200
								CHANNELS 3 Xrotation Yrotation Zrotation
								End Site
								{
									OFFSET 0.000000 13.534866 0.000000
								}
							}
						}
						JOINT HairC
						{
							OFFSET 9.713100 17.437393 -1.325900
							CHANNELS 3 Xrotation Yrotation Zrotation
							JOINT HairC1
							{
								OFFSET 3.290300 -11.051193 1.062200
								CHANNELS 3 Xrotation Yrotation Zrotation
								End Site
								{
									OFFSET 0.000000 11.579437 0.000000
								}
							}
						}
					}
				}
				JOINT LeftShoulder
				{
					OFFSET 5.101800 15.108002 -2.763700
					CHANNELS 3 Xrotation Yrotation Zrotation
					JOINT LeftArm
					{
						OFFSET 9.825497 2.506317 -1.597400
						CHANNELS 3 Xrotation Yrotation Zrotation
						JOINT LeftForeArm
						{
							OFFSET 21.966244 0.000000 0.000000
							CHANNELS 3 Xrotation Yrotation Zrotation
							JOINT LeftHand
							{
								OFFSET 33.879036 0.000000 0.000000
								CHANNELS 3 Xrotation Yrotation Zrotation
								JOINT LeftHandThumb1
								{
									OFFSET 6.715286 -2.359680 3.363841
									CHANNELS 3 Xrotation Yrotation Zrotation
									JOINT LeftHandThumb2
									{
										OFFSET 2.507072 -1.447464 1.447461
										CHANNELS 3 Xrotation Yrotation Zrotation
										JOINT LeftHandThumb3
										{
											OFFSET 2.898338 -1.673355 1.673357
											CHANNELS 3 Xrotation Yrotation Zrotation
											End Site
											{
												OFFSET -0.295959 3.727692 -0.131651
											}
										}
									}
								}
								JOINT LeftHandIndex1
								{
									OFFSET 14.190811 -0.254547 3.840278
									CHANNELS 3 Xrotation Yrotation Zrotation
									JOINT LeftHandIndex2
									{
										OFFSET 3.551727 0.000000 -0.000000
										CHANNELS 3 Xrotation Yrotation Zrotation
										JOINT LeftHandIndex3
										{
											OFFSET 2.894196 0.000000 0.000000
											CHANNELS 3 Xrotation Yrotation Zrotation
											End Site
											{
												OFFSET -1.000603 2.690872 0.366626
											}
										}
									}
								}
								JOINT LeftHandMiddle1
								{
									OFFSET 13.776489 0.000000 0.000000
									CHANNELS 3 Xrotation Yrotation Zrotation
									JOINT LeftHandMiddle2
									{
										OFFSET 3.438232 0.000000 0.000000
										CHANNELS 3 Xrotation Yrotation Zrotation
										JOINT LeftHandMiddle3
										{
											OFFSET 3.691551 0.000000 0.000000
											CHANNELS 3 Xrotation Yrotation Zrotation
											End Site
											{
												OFFSET -1.082298 3.499527 0.457670
											}
										}
									}
								}
								JOINT LeftHandRing1
								{
									OFFSET 13.966164 -0.268127 -3.067488
									CHANNELS 3 Xrotation Yrotation Zrotation
									JOINT LeftHandRing2
									{
										OFFSET 3.162567 0.000000 0.000000
										CHANNELS 3 Xrotation Yrotation Zrotation
										JOINT LeftHandRing3
										{
											OFFSET 3.324348 0.000000 0.000000
											CHANNELS 3 Xrotation Yrotation Zrotation
											End Site
											{
												OFFSET -0.861900 3.184998 0.405154
											}
										}
									}
								}
								JOINT LeftHandPinky1
								{
									OFFSET 13.131393 -0.168503 -5.746925
									CHANNELS 3 Xrotation Yrotation Zrotation
									JOINT LeftHandPinky2
									{
										OFFSET 2.849182 0.000000 0.000000
										CHANNELS 3 Xrotation Yrotation Zrotation
										JOINT LeftHandPinky3
										{
											OFFSET 2.805038 0.000000 0.000000
											CHANNELS 3 Xrotation Yrotation Zrotation
											End Site
											{
												OFFSET -0.882500 2.642609 0.325652
											}
										}
									}
								}
							}
							JOINT Left_Sleeve
							{
								OFFSET 6.592125 -0.646545 0.805568
								CHANNELS 3 Xrotation Yrotation Zrotation
								End Site
								{
									OFFSET -0.000179 20.275787 -0.000000
								}
							}
						}
					}
				}
				JOINT RightShoulder
				{
					OFFSET -5.731700 15.108002 -2.763700
					CHANNELS 3 Xrotation Yrotation Zrotation
					JOINT RightArm
					{
						OFFSET -9.825497 2.506317 -1.597400
						CHANNELS 3 Xrotation Yrotation Zrotation
						JOINT RightForeArm
						{
							OFFSET -21.966242 0.000000 0.000000
							CHANNELS 3 Xrotation Yrotation Zrotation
							JOINT RightHand
							{
								OFFSET -33.879032 0.000000 0.000000
								CHANNELS 3 Xrotation Yrotation Zrotation
								JOINT RightHandThumb1
								{
									OFFSET -6.715286 -2.359680 3.363841
									CHANNELS 3 Xrotation Yrotation Zrotation
									JOINT RightHandThumb2
									{
										OFFSET -2.507072 -1.447464 1.447461
										CHANNELS 3 Xrotation Yrotation Zrotation
										JOINT RightHandThumb3
										{
											OFFSET -2.898338 -1.673355 1.673357
											CHANNELS 3 Xrotation Yrotation Zrotation
											End Site
											{
												OFFSET 0.295959 3.727692 -0.131651
											}
										}
									}
								}
								JOINT RightHandIndex1
								{
									OFFSET -14.190811 -0.254547 3.840278
									CHANNELS 3 Xrotation Yrotation Zrotation
									JOINT RightHandIndex2
									{
										OFFSET -3.551727 0.000000 -0.000000
										CHANNELS 3 Xrotation Yrotation Zrotation
										JOINT RightHandIndex3
										{
											OFFSET -2.894196 0.000000 0.000000
											CHANNELS 3 Xrotation Yrotation Zrotation
											End Site
											{
												OFFSET 1.000603 2.690872 0.366626
											}
										}
									}
								}
								JOINT RightHandMiddle1
								{
									OFFSET -13.776489 0.000000 0.000000
									CHANNELS 3 Xrotation Yrotation Zrotation
									JOINT RightHandMiddle2
									{
										OFFSET -3.438232 0.000000 0.000000
										CHANNELS 3 Xrotation Yrotation Zrotation
										JOINT RightHandMiddle3
										{
											OFFSET -3.691551 0.000000 0.000000
											CHANNELS 3 Xrotation Yrotation Zrotation
											End Site
											{
												OFFSET 1.082298 3.499527 0.457670
											}
										}
									}
								}
								JOINT RightHandRing1
								{
									OFFSET -13.966164 -0.268127 -3.067488
									CHANNELS 3 Xrotation Yrotation Zrotation
									JOINT RightHandRing2
									{
										OFFSET -3.162567 0.000000 0.000000
										CHANNELS 3 Xrotation Yrotation Zrotation
										JOINT RightHandRing3
										{
											OFFSET -3.324348 0.000000 0.000000
											CHANNELS 3 Xrotation Yrotation Zrotation
											End Site
											{
												OFFSET 0.861900 3.184998 0.405154
											}
										}
									}
								}
								JOINT RightHandPinky1
								{
									OFFSET -13.131393 -0.168503 -5.746925
									CHANNELS 3 Xrotation Yrotation Zrotation
									JOINT RightHandPinky2
									{
										OFFSET -2.849182 0.000000 0.000000
										CHANNELS 3 Xrotation Yrotation Zrotation
										JOINT RightHandPinky3
										{
											OFFSET -2.805038 0.000000 0.000000
											CHANNELS 3 Xrotation Yrotation Zrotation
											End Site
											{
												OFFSET 0.882500 2.642609 0.325652
											}
										}
									}
								}
							}
							JOINT Right_Sleeve
							{
								OFFSET -6.592125 -0.646545 0.805568
								CHANNELS 3 Xrotation Yrotation Zrotation
								End Site
								{
									OFFSET 0.000179 20.275787 -0.000000
								}
							}
						}
					}
				}
				JOINT Bind_Right_JacketString
				{
					OFFSET -3.534800 11.969597 7.200700
					CHANNELS 3 Xrotation Yrotation Zrotation
					JOINT Bind_Right_JacketString1
					{
						OFFSET -0.319900 -6.102600 2.794100
						CHANNELS 3 Xrotation Yrotation Zrotation
						End Site
						{
							OFFSET 0.000000 6.719452 0.000000
						}
					}
				}
				JOINT Bind_Left_JacketString
				{
					OFFSET 2.904800 11.969597 7.200700
					CHANNELS 3 Xrotation Yrotation Zrotation
					JOINT Bind_Left_JacketString1
					{
						OFFSET 0.364800 -5.904503 3.186800
						CHANNELS 3 Xrotation Yrotation Zrotation
						End Site
						{
							OFFSET 0.000000 6.719513 0.000000
						}
					}
				}
				JOINT HairE
				{
					OFFSET 5.915200 17.612701 -11.592200
					CHANNELS 3 Xrotation Yrotation Zrotation
					JOINT HairE1
					{
						OFFSET 0.289200 -7.171898 -1.284500
						CHANNELS 3 Xrotation Yrotation Zrotation
						End Site
						{
							OFFSET 0.000000 7.291756 0.000000
						}
					}
				}
				JOINT HairF
				{
					OFFSET -0.864800 17.612701 -11.592200
					CHANNELS 3 Xrotation Yrotation Zrotation
					JOINT HairF1
					{
						OFFSET 0.000000 -14.087097 -2.127501
						CHANNELS 3 Xrotation Yrotation Zrotation
						End Site
						{
							OFFSET 0.000000 14.246841 0.000000
						}
					}
				}
				JOINT HairG
				{
					OFFSET -8.087700 17.612701 -11.592200
					CHANNELS 3 Xrotation Yrotation Zrotation
					JOINT HairG1
					{
						OFFSET -0.293600 -6.081398 -0.910100
						CHANNELS 3 Xrotation Yrotation Zrotation
						End Site
						{
							OFFSET 0.000000 6.156120 0.000000
						}
					}
				}
			}
		}
	}
	JOINT Pouch
	{
		OFFSET 0.000000 4.394501 10.847300
		CHANNELS 3 Xrotation Yrotation Zrotation
		End Site
		{
			OFFSET 0.000000 21.880577 0.000000
		}
	}
	JOINT Bag
	{
		OFFSET -13.229000 4.813004 -0.593300
		CHANNELS 3 Xrotation Yrotation Zrotation
		End Site
		{
			OFFSET 0.000000 21.880577 0.000000
		}
	}
	JOINT OccupyGuyFacialAnim_Joint
	{
		OFFSET 1.000000 -70.206398 -1.655000
		CHANNELS 3 Xrotation Yrotation Zrotation
		End Site
		{
			OFFSET 0.000000 21.880577 0.000000
		}
	}
}
MOTION
Frames: 4
Frame Time: 0.033333
-5.384887 58.834259 1.867617 2.361861 -18.437016 -6.991495 0.000001 -0.000001 0.000000 -50.328467 -8.012249 21.264133 55.120986 -9.252858 9.940036 -14.515224 -14.112353 -22.179728 0.000000 0.000001 -0.000000 0.000003 -0.000000 0.000000 15.933088 -10.450036 -0.977464 33.377997 -10.560467 -2.647747 -38.851048 -23.308914 10.062333 0.000000 0.000001 0.000000 0.000003 -0.000002 0.000000 0.065388 6.663541 -2.028391 0.649040 9.182003 -7.773951 0.506885 9.170379 -7.787669 0.867493 -1.486765 -7.412121 -0.708828 12.216917 10.274730 -0.000000 0.000000 0.000001 -0.000000 0.000000 0.000001 -0.000000 0.000000 0.000001 -0.000000 0.000000 0.000001 -0.000002 -0.000002 -0.000000 -0.000000 0.000000 0.000001 -0.000002 -0.000002 -0.000000 -0.000000 0.000000 0.000001 -0.000000 0.000000 0.000001 0.625990 4.886499 -10.191500 31.386656 -29.922960 -45.551269 0.000306 -101.339496 0.000326 -5.335776 -3.493231 11.303705 19.186539 -19.787289 -14.581288 -5.035971 50.633408 19.637414 -0.000001 0.000002 0.000001 0.030509 4.279635 -36.072514 2.022725 4.428081 -49.084331 0.000002 0.000000 -0.000000 2.506533 7.316967 -41.756532 2.910123 5.060485 -59.782399 0.000001 0.000001 -0.000001 4.790644 8.709454 -54.750677 3.708064 5.445769 -68.480938 -0.000001 0.000001 -0.000005 6.378151 9.897307 -64.633486 3.936047 5.529810 -70.864319 0.000001 -0.000001 0.000003 0.000000 0.000000 0.000001 0.094227 -3.624694 1.682151 110.421920 151.721874 -106.826945 0.192996 89.946215 -0.193969 31.221273 -14.169673 -52.448012 -6.901932 8.181175 -4.018453 19.527834 -19.532287 9.125519 0.000001 -0.000001 -0.000000 0.105970 -3.014617 9.032810 0.194781 -1.334146 16.612050 -0.000002 -0.000000 0.000002 0.596242 -4.473624 28.042685 0.457478 -2.014695 25.583438 -0.000002 -0.000001 -0.000003 0.841907 -4.881523 33.905459 0.684562 -2.432502 31.431294 0.000002 0.000003 -0.000002 0.909306 -4.978751 35.361604 0.746386 -2.530795 32.859125 0.000002 -0.000001 0.000000 0.000001 0.000002 0.000002 0.000000 -0.000001 -0.000003 0.000000 0.000000 -0.000003 0.000000 -0.000001 -0.000003 0.000000 -0.000001 -0.000003 0.000000 -0.000001 -0.000003 0.000000 0.000000 -0.000003 0.000000 -0.000001 -0.000003 0.000000 -0.000001 -0.000003 0.000000 -0.000001 -0.000003 0.000000 0.000000 -0.000003 0.000001 -0.000001 0.000000 0.000001 -0.000001 0.000000 0.000001 -0.000001 0.000000 
-5.343601 58.523476 2.100913 3.850147 -18.204700 -6.453824 -0.000000 0.000001 -0.000000 -52.127813 -9.060235 20.141120 56.601559 -9.088875 9.951351 -15.042009 -13.715338 -21.990783 -0.000000 -0.000004 -0.000000 -0.000003 0.000000 -0.000000 15.969144 -10.139623 -1.248631 31.396727 -9.168221 -2.468662 -38.514276 -24.596233 11.533705 0.000000 0.000001 -0.000000 -0.000001 0.000001 -0.000000 -0.115607 6.868066 -2.767416 0.181834 9.319029 -9.108935 0.034711 9.303353 -9.116125 1.425660 -1.800464 -7.359976 -2.030736 10.620352 12.299235 0.000000 0.000000 -0.000001 0.000000 0.000000 -0.000001 0.000000 0.000000 -0.000002 0.000000 0.000000 -0.000002 -0.000000 0.000000 -0.000000 0.000000 0.000000 -0.000002 -0.000000 0.000000 -0.000000 0.000000 0.000000 -0.000001 0.000000 0.000000 -0.000001 0.587395 4.842314 -9.660630 32.929346 -21.054944 -50.461376 -0.000026 -106.896641 -0.000027 -5.526476 -3.179723 8.031965 19.213249 -18.281551 -15.622576 -0.641383 50.798384 15.205550 0.000001 -0.000002 0.000002 0.622185 5.286839 -42.192216 2.520121 4.813072 -55.252877 0.000000 0.000002 -0.000001 3.039607 7.550693 -50.959051 3.682351 5.435598 -68.209793 0.000002 -0.000001 -0.000001 5.370407 8.502825 -66.070940 4.618848 5.720288 -77.822246 -0.000001 -0.000002 0.000002 6.812958 9.230027 -74.978675 4.873960 5.769175 -80.370385 -0.000000 -0.000001 0.000001 -0.000001 -0.000000 -0.000001 0.166785 -3.503723 2.734415 115.841019 161.612180 -116.829539 0.000437 99.387428 -0.000440 23.504378 -7.281390 -45.441474 -6.901939 8.181179 -4.018424 20.842474 -23.299718 9.147806 -0.000001 -0.000001 0.000000 0.105970 -3.014626 9.032814 0.194788 -1.334136 16.612051 0.000001 0.000001 0.000000 0.596258 -4.473629 28.042716 0.457465 -2.014697 25.583421 0.000003 -0.000003 -0.000001 0.841917 -4.881514 33.905469 0.684559 -2.432507 31.431301 0.000001 0.000000 0.000002 0.909321 -4.978759 35.361628 0.746391 -2.530786 32.859115 0.000000 -0.000001 0.000000 0.000000 -0.000001 -0.000002 -0.000001 0.000000 -0.000001 -0.000001 0.000000 0.000000 -0.000001 0.000000 -0.000001 -0.000001 0.000000 -0.000001 -0.000001 0.000000 -0.000001 -0.000001 0.000000 0.000001 -0.000001 0.000000 -0.000001 -0.000001 0.000000 -0.000001 -0.000001 0.000000 -0.000001 -0.000001 0.000000 0.000001 -0.000000 0.000001 -0.000000 -0.000000 0.000001 -0.000000 -0.000000 0.000001 -0.000000 
-5.206075 57.960968 1.927848 5.074043 -17.441873 -6.834829 0.000000 0.000000 0.000000 -54.796214 -10.367765 19.726747 58.202166 -9.113607 9.930354 -14.707206 -13.812367 -21.638215 -0.000000 -0.000002 -0.000000 -0.000002 0.000000 0.000001 16.521189 -9.540743 -0.984472 29.235375 -7.540157 -1.547155 -38.282500 -25.971236 14.075460 0.000000 -0.000002 0.000000 0.000001 -0.000001 -0.000000 0.015866 7.213572 -3.229978 0.395807 9.658616 -10.020522 0.240924 9.642029 -10.031043 1.713099 -2.863556 -6.059239 -3.668863 6.421379 17.050700 0.000002 0.000001 -0.000001 0.000002 0.000001 -0.000001 0.000002 0.000001 -0.000000 0.000002 0.000001 -0.000002 0.000000 -0.000001 0.000000 0.000002 0.000001 -0.000002 0.000000 -0.000001 0.000000 0.000002 0.000001 -0.000001 0.000002 0.000001 -0.000001 0.540315 4.800818 -9.006531 31.614767 -13.996618 -54.718380 0.000154 -110.053937 0.000147 -5.661512 -2.929037 5.499748 19.255975 -16.873861 -16.559413 3.433547 50.707857 11.111844 0.000000 0.000001 -0.000001 1.558566 6.418411 -51.688348 3.361572 5.296688 -64.780820 0.000001 0.000000 -0.000000 3.721459 7.815572 -61.494249 4.639650 5.724735 -78.030950 -0.000001 0.000000 0.000002 5.827487 8.339874 -76.593065 5.498301 5.840463 -86.537629 0.000001 -0.000002 0.000004 6.935045 8.722582 -83.556061 5.668488 5.848240 -88.208758 -0.000001 0.000001 0.000001 -0.000003 -0.000001 -0.000001 0.240523 -3.503164 3.951833 122.961327 171.194648 -133.234738 -0.000056 99.817457 0.000042 14.536379 -0.290564 -40.445498 -6.901934 8.181175 -4.018434 22.132762 -26.882557 9.259517 0.000001 0.000000 0.000001 0.105956 -3.014625 9.032822 0.194792 -1.334128 16.612036 0.000003 0.000001 0.000006 0.596239 -4.473631 28.042699 0.457481 -2.014688 25.583423 -0.000002 -0.000002 0.000001 0.841920 -4.881513 33.905476 0.684549 -2.432514 31.431294 -0.000001 -0.000005 -0.000001 0.909315 -4.978746 35.361634 0.746382 -2.530800 32.859121 -0.000004 0.000002 0.000003 -0.000000 0.000000 0.000001 0.000000 -0.000001 0.000002 -0.000000 0.000000 0.000001 0.000000 -0.000001 0.000002 0.000000 -0.000001 0.000002 0.000000 -0.000001 0.000002 -0.000000 0.000000 0.000002 0.000000 -0.000001 0.000002 0.000000 -0.000001 0.000002 0.000000 -0.000001 0.000002 -0.000000 0.000000 0.000002 0.000000 0.000000 0.000000 0.000000 0.000000 0.000000 0.000000 0.000000 0.000000 
-4.900473 57.317772 1.608514 5.298143 -17.046836 -7.749899 0.000000 0.000003 -0.000000 -56.916830 -11.416846 19.820360 60.112365 -9.168808 9.927729 -14.123935 -13.680677 -21.176474 -0.000000 -0.000002 0.000000 -0.000003 0.000001 0.000000 17.766871 -9.268635 -1.078853 27.131050 -6.607918 -0.779798 -37.825581 -25.415933 17.565276 -0.000000 0.000001 0.000000 0.000001 0.000000 -0.000000 0.494086 7.523134 -3.430186 1.287203 10.051952 -10.433233 1.129242 10.044706 -10.449285 1.786101 -4.091182 -4.443564 -5.628285 1.444816 22.013471 0.000002 -0.000000 0.000001 0.000002 -0.000000 0.000001 0.000002 -0.000000 0.000001 0.000002 -0.000000 0.000001 0.000001 -0.000000 -0.000000 0.000002 -0.000000 0.000001 0.000001 -0.000000 -0.000000 0.000002 -0.000000 0.000001 0.000002 -0.000000 0.000001 0.513938 4.796609 -8.640352 27.503700 -8.547917 -60.287143 -0.000024 -112.924692 -0.000014 -5.843776 -2.541843 1.680263 19.305308 -15.664349 -17.338114 6.871091 50.448774 7.670793 0.000000 -0.000000 -0.000001 2.771611 7.354704 -62.602153 4.407551 5.670788 -75.693557 -0.000001 0.000001 -0.000003 4.404218 8.013095 -71.399526 5.578851 5.844743 -87.329043 0.000000 -0.000000 0.000002 6.046905 8.240394 -84.311240 6.129794 5.844444 -92.735200 -0.000000 0.000000 -0.000001 6.695807 8.425139 -88.425097 6.103156 5.845654 -92.473637 -0.000002 0.000003 -0.000000 0.000001 -0.000000 -0.000000 0.310713 -3.561408 5.137906 131.435038 175.366842 -148.026278 0.000900 85.362734 -0.000866 17.804915 7.694026 -36.117453 -6.901935 8.181154 -4.018455 23.350634 -30.135099 9.445196 0.000001 -0.000001 -0.000001 0.139852 -3.202532 11.378427 0.249757 -1.506108 18.829828 -0.000003 -0.000002 0.000002 0.689743 -4.640266 30.393918 0.543620 -2.185442 27.934200 -0.000001 -0.000001 -0.000004 0.941468 -5.023328 36.038301 0.777777 -2.578697 33.563140 -0.000001 0.000000 -0.000003 1.021125 -5.129181 37.669268 0.851385 -2.686251 35.165970 -0.000003 0.000002 -0.000001 -0.000000 -0.000002 -0.000001 -0.000001 -0.000000 0.000002 -0.000000 0.000000 0.000000 -0.000001 -0.000000 0.000001 -0.000001 -0.000000 0.000001 -0.000001 -0.000000 0.000002 -0.000000 0.000000 0.000001 -0.000001 -0.000000 0.000001 -0.000001 -0.000000 0.000001 -0.000001 -0.000000 0.000002 -0.000000 0.000000 0.000001 0.000000 0.000003 -0.000000 0.000000 0.000003 -0.000000 0.000000 0.000003 -0.000000 
